<?xml version="1.0" encoding="iso-8859-1"?>
<!-- Uploaded to: SVG Repo, www.svgrepo.com, Generator: SVG Repo Mixer Tools -->
<svg fill="#000000" height="800px" width="800px" version="1.1" id="Layer_1" xmlns="http://www.w3.org/2000/svg" xmlns:xlink="http://www.w3.org/1999/xlink" 
	 viewBox="0 0 512 512" xml:space="preserve">
<g>
	<g>
		<path d="M512,275.89c0-19.934-16.16-36.095-36.095-36.095h-12.401c15.449-4.088,26.839-18.158,26.839-34.891
			c0-19.934-16.16-36.095-36.095-36.095H366.22c9.385-28.264,12.517-54.298,11.292-79.06c-0.731-14.668-11.16-27.651-26.198-30.931
			c-17.993-3.925-35.761,7.478-39.687,25.472c-9.739,51.297-68.409,100.233-68.368,100.187
			c-10.446,9.634-16.067,22.534-16.768,35.685h-33.618v203.566h24.991c2.803,17.144,17.677,30.229,35.614,30.229h179.113
			c19.934,0,36.095-16.16,36.095-36.095c0-16.735-11.39-30.804-26.839-34.891h12.401c19.934,0,36.095-16.16,36.095-36.095
			c0-16.735-11.39-30.804-26.839-34.891h12.401C495.84,311.984,512,295.824,512,275.89z"/>
	</g>
</g>
<g>
	<g>
		<path d="M136.158,201.677H19.897C8.908,201.677,0,210.584,0,221.573v200.743c0,10.989,8.908,19.897,19.897,19.897H136.16
			c10.989,0,19.897-8.908,19.897-19.897V221.573C156.056,210.584,147.148,201.677,136.158,201.677z M88.669,416.394
			c-12.695,0-22.985-10.291-22.985-22.985c0-12.695,10.291-22.985,22.985-22.985c12.694,0,22.985,10.291,22.985,22.985
			C111.656,406.103,101.364,416.394,88.669,416.394z"/>
	</g>
</g>
</svg>